<svg width="192" height="191" viewBox="0 0 192 191" fill="none" xmlns="http://www.w3.org/2000/svg">
<g clip-path="url(#clip0_45_20)">
<path d="M121.743 66.9584H123.591L127.033 62.5463L133.559 54.1918L133.968 53.6607V36.2981L130.832 32.2128L125.45 25.2269L123.132 22.1629H114.583L110.978 16.8417L106.525 10.1929H79.2349L76.8654 6.64886L72.4124 0H36.6658L34.0103 6.64886L31.8451 12.0619L30.1803 16.2392H17.0767L8.90601 22.8778L6.63865 24.7366L2.89037 27.8006L-0.0612793 30.211V52.5577L2.89037 56.3877L6.63865 61.2594L8.68131 63.8945L11.0508 66.9584H121.743ZM27.6066 47.6553H20.6411L16.995 52.3228L12.593 57.9605L6.69993 50.3108V41.6397H17.5056L21.6931 38.2182L19.058 34.9908L17.475 33.0809L15.1463 34.9908H6.74079V33.3464L19.5483 22.8778H32.0698L38.7902 28.056V29.159C36.5862 29.7062 34.6275 30.9724 33.2237 32.7573C31.8198 34.5422 31.0508 36.744 31.0383 39.0148C31.0544 41.7129 32.1376 44.295 34.0512 46.1971C35.9649 48.0993 38.5534 49.1669 41.2516 49.1669C43.9497 49.1669 46.5383 48.0993 48.4519 46.1971C50.3655 44.295 51.4487 41.7129 51.4649 39.0148C51.4558 37.0565 50.8839 35.1421 49.8173 33.4997C48.7508 31.8574 47.2345 30.5562 45.4492 29.7514L45.153 29.6288V24.9103H44.8875L45.153 24.5732L44.5709 24.1238L36.6862 18.0673L41.2516 6.64886H44.7139L44.8875 10.1214L45.1633 15.8715L52.0368 19.1704L52.8539 19.5687L55.7851 13.5837L51.6998 11.6023L51.4547 6.64886H68.8173L71.1868 10.1929L72.8515 12.6747L70.8089 14.7174L68.6641 16.852L67.2546 18.241V20.2836V27.964L68.3373 28.587L73.1784 31.3549C73.1631 31.6406 73.1631 31.927 73.1784 32.2128C73.1784 33.554 73.4425 34.8821 73.9558 36.1212C74.4691 37.3604 75.2214 38.4863 76.1698 39.4347C77.1182 40.3831 78.2441 41.1354 79.4832 41.6486C80.7223 42.1619 82.0504 42.4261 83.3917 42.4261C86.1004 42.4261 88.6982 41.35 90.6136 39.4347C92.5289 37.5193 93.605 34.9215 93.605 32.2128C93.5915 29.5129 92.5095 26.9282 90.5956 25.0239C88.6817 23.1195 86.0916 22.0505 83.3917 22.0505C81.9972 22.0507 80.6173 22.3341 79.3357 22.8836C78.0541 23.4331 76.8974 24.2373 75.936 25.2473L73.975 24.1238L72.9537 23.5315V22.0812L73.975 21.0598L78.2135 16.8622H103.022L106.719 22.3774L108.333 24.7775L106.719 26.381L100.959 32.0902L99.1712 33.8673V38.7697C97.0745 39.3955 95.2342 40.678 93.9214 42.4285C92.6086 44.179 91.8926 46.3048 91.8789 48.4928C91.8789 51.2015 92.955 53.7993 94.8703 55.7147C96.7857 57.63 99.3835 58.7061 102.092 58.7061C104.801 58.7061 107.399 57.63 109.314 55.7147C111.23 53.7993 112.306 51.2015 112.306 48.4928C112.301 46.4469 111.678 44.4502 110.519 42.7644C109.36 41.0786 107.718 39.7823 105.81 39.0455V36.6249L113.623 28.873H119.833L127.288 38.5552V51.4138L120.303 60.3198H83.31V53.0173L81.3592 51.0563L78.1012 47.8289L74.9453 44.6934H61.9539L59.6151 42.375L57.2762 44.6934L54.8863 47.0425L59.1861 51.3117H72.1672L76.6203 55.734V60.3198H19.2419L23.9298 54.3144H29.6186V47.6553H27.6066ZM41.2413 33.6835C41.9459 33.6781 42.6445 33.8119 43.2972 34.0771C43.9499 34.3424 44.5438 34.7339 45.0448 35.2293C45.5459 35.7246 45.9441 36.314 46.2168 36.9636C46.4895 37.6132 46.6313 38.3103 46.634 39.0148C46.6313 39.7163 46.4905 40.4104 46.2196 41.0574C45.9486 41.7045 45.5529 42.2918 45.055 42.7859C44.5571 43.28 43.9668 43.6712 43.3177 43.9372C42.6686 44.2032 41.9735 44.3387 41.272 44.336C40.5697 44.34 39.8734 44.2055 39.2232 43.9401C38.5729 43.6748 37.9813 43.2838 37.4823 42.7895C36.9833 42.2953 36.5867 41.7075 36.3152 41.0598C36.0436 40.4121 35.9025 39.7172 35.8998 39.0148C35.9052 37.6008 36.47 36.2463 37.4709 35.2474C38.4717 34.2484 39.8273 33.6862 41.2413 33.6835ZM77.948 32.2128C77.9507 31.5113 78.0915 30.8172 78.3624 30.1702C78.6333 29.5232 79.029 28.9358 79.5269 28.4417C80.0248 27.9476 80.6152 27.5564 81.2643 27.2904C81.9134 27.0245 82.6085 26.889 83.31 26.8916C84.0123 26.8876 84.7085 27.0221 85.3588 27.2875C86.0091 27.5528 86.6006 27.9438 87.0996 28.4381C87.5986 28.9323 87.9952 29.5201 88.2668 30.1678C88.5383 30.8155 88.6795 31.5104 88.6822 32.2128C88.6795 32.9151 88.5383 33.61 88.2668 34.2577C87.9952 34.9054 87.5986 35.4932 87.0996 35.9875C86.6006 36.4817 86.0091 36.8727 85.3588 37.1381C84.7085 37.4034 84.0123 37.5379 83.31 37.5339C82.6085 37.5366 81.9134 37.4011 81.2643 37.1351C80.6152 36.8692 80.0248 36.478 79.5269 35.9838C79.029 35.4897 78.6333 34.9024 78.3624 34.2554C78.0915 33.6083 77.9507 32.9142 77.948 32.2128ZM102.041 43.1512C103.459 43.1458 104.821 43.703 105.828 44.7006C106.835 45.6983 107.405 47.0547 107.413 48.4724C107.405 49.8909 106.835 51.2484 105.828 52.2477C104.822 53.2469 103.46 53.8064 102.041 53.8037C100.624 53.8037 99.2652 53.243 98.2605 52.2441C97.2558 51.2451 96.6873 49.8891 96.6792 48.4724C96.6873 47.0565 97.2561 45.7016 98.2611 44.7043C99.2661 43.7069 100.625 43.1485 102.041 43.1512Z" fill="url(#paint0_linear_45_20)"/>
<path d="M145.581 36.0734C147.713 36.084 149.795 35.4269 151.535 34.1942C153.275 32.9615 154.586 31.2151 155.283 29.1999H155.825H168.08C170.748 29.2268 173.295 30.3109 175.164 32.2142C177.033 34.1175 178.07 36.6845 178.049 39.3519V53.6505C175.702 54.3021 173.666 55.7707 172.307 57.7915C170.947 59.8123 170.355 62.2522 170.636 64.6712C170.918 67.0902 172.054 69.3291 173.841 70.9841C175.627 72.639 177.946 73.6011 180.38 73.6969C182.813 73.7926 185.201 73.0157 187.112 71.5062C189.023 69.9967 190.332 67.854 190.802 65.4646C191.273 63.0752 190.874 60.5963 189.678 58.475C188.482 56.3537 186.567 54.7296 184.279 53.8956V37.0743C184.296 35.1563 183.936 33.2537 183.218 31.475C182.5 29.6963 181.439 28.0765 180.095 26.7079C178.751 25.3394 177.151 24.249 175.386 23.4989C173.62 22.7489 171.725 22.3539 169.807 22.3365H155.212C154.47 20.3834 153.151 18.7022 151.431 17.5164C149.71 16.3307 147.67 15.6964 145.581 15.6979C144.182 15.5988 142.778 15.7887 141.456 16.2558C140.134 16.7229 138.923 17.4572 137.897 18.4129C136.871 19.3686 136.053 20.5253 135.494 21.811C134.934 23.0966 134.646 24.4836 134.646 25.8856C134.646 27.2877 134.934 28.6747 135.494 29.9603C136.053 31.2459 136.871 32.4026 137.897 33.3584C138.923 34.3141 140.134 35.0484 141.456 35.5155C142.778 35.9826 144.182 36.1725 145.581 36.0734ZM180.806 58.1955C181.843 58.2035 182.854 58.5182 183.712 59.1C184.569 59.6817 185.236 60.5044 185.627 61.4643C186.018 62.4242 186.116 63.4784 185.909 64.4941C185.702 65.5097 185.199 66.4412 184.463 67.1713C183.727 67.9014 182.792 68.3974 181.775 68.5966C180.757 68.7959 179.704 68.6896 178.747 68.2911C177.79 67.8926 176.973 67.2197 176.398 66.3573C175.823 65.4949 175.516 64.4816 175.516 63.4451C175.518 62.753 175.657 62.0682 175.925 61.4299C176.192 60.7915 176.582 60.212 177.074 59.7245C177.565 59.2371 178.148 58.8511 178.788 58.5888C179.428 58.3264 180.114 58.1928 180.806 58.1955ZM145.581 20.6309C146.617 20.639 147.628 20.9537 148.486 21.5354C149.344 22.1171 150.01 22.9398 150.401 23.8997C150.792 24.8596 150.891 25.9139 150.683 26.9295C150.476 27.9451 149.973 28.8767 149.237 29.6068C148.502 30.3369 147.566 30.8328 146.549 31.0321C145.532 31.2314 144.478 31.125 143.521 30.7265C142.565 30.328 141.747 29.6552 141.172 28.7928C140.597 27.9304 140.29 26.9171 140.29 25.8805C140.298 24.4837 140.859 23.1469 141.851 22.163C142.843 21.1791 144.184 20.6282 145.581 20.6309Z" fill="url(#paint1_linear_45_20)"/>
<path d="M78.3974 114.614H89.9793C90.5682 116.158 91.6117 117.488 92.972 118.427C94.3323 119.366 95.9455 119.87 97.5984 119.874C98.6646 119.883 99.7221 119.682 100.71 119.282C101.699 118.881 102.598 118.29 103.357 117.541C104.116 116.793 104.72 115.901 105.134 114.919C105.548 113.936 105.764 112.882 105.769 111.815C105.765 110.748 105.55 109.692 105.137 108.709C104.724 107.725 104.12 106.833 103.361 106.083C102.602 105.333 101.702 104.741 100.713 104.34C99.7238 103.939 98.6655 103.737 97.5984 103.747C95.911 103.742 94.2642 104.264 92.8874 105.24C91.5107 106.216 90.4727 107.597 89.918 109.19H79.766C77.6585 109.169 75.6454 108.313 74.1676 106.81C72.6898 105.308 71.8677 103.281 71.8813 101.173V89.8567C73.5897 89.3935 75.0986 88.3821 76.1762 86.9779C77.2538 85.5736 77.8404 83.8544 77.8459 82.0844C77.8419 81.0178 77.627 79.9625 77.2136 78.9793C76.8002 77.9961 76.1964 77.1044 75.437 76.3554C74.6776 75.6064 73.7776 75.015 72.7888 74.6153C71.7999 74.2155 70.7418 74.0153 69.6752 74.0261C68.613 74.022 67.5603 74.2273 66.5774 74.6301C65.5945 75.0328 64.7005 75.6253 63.9465 76.3736C63.1925 77.1219 62.5933 78.0113 62.1831 78.9912C61.7729 79.9711 61.5597 81.0221 61.5557 82.0844C61.5588 83.7435 62.0734 85.3613 63.0292 86.7173C63.9851 88.0734 65.3357 89.1019 66.8972 89.6627V102.94C66.8824 104.463 67.1685 105.973 67.739 107.385C68.3096 108.796 69.1534 110.081 70.2219 111.166C71.2905 112.251 72.5628 113.114 73.9658 113.705C75.3688 114.297 76.8748 114.606 78.3974 114.614ZM97.5984 107.658C98.7045 107.656 99.7666 108.092 100.552 108.871C101.337 109.65 101.78 110.709 101.786 111.815C101.783 112.363 101.673 112.904 101.461 113.408C101.249 113.913 100.94 114.371 100.551 114.756C100.162 115.141 99.7012 115.446 99.1946 115.653C98.6881 115.859 98.1457 115.965 97.5984 115.962C97.0512 115.965 96.5088 115.859 96.0022 115.653C95.4956 115.446 95.0347 115.141 94.6459 114.756C94.2571 114.371 93.9479 113.913 93.736 113.408C93.5241 112.904 93.4137 112.363 93.411 111.815C93.4123 111.267 93.5218 110.725 93.7331 110.219C93.9443 109.713 94.2533 109.254 94.6423 108.868C95.0313 108.482 95.4926 108.176 95.9999 107.969C96.5071 107.761 97.0504 107.656 97.5984 107.658ZM65.5286 82.1252C65.5313 81.578 65.6418 81.0367 65.8536 80.5321C66.0655 80.0276 66.3747 79.5697 66.7636 79.1847C67.1524 78.7996 67.6133 78.4949 68.1199 78.288C68.6265 78.081 69.1689 77.9759 69.7161 77.9786C70.2633 77.9759 70.8057 78.081 71.3123 78.288C71.8189 78.4949 72.2798 78.7996 72.6686 79.1847C73.0575 79.5697 73.3667 80.0276 73.5786 80.5321C73.7904 81.0367 73.9009 81.578 73.9036 82.1252C73.9022 82.6733 73.7928 83.2157 73.5815 83.7215C73.3702 84.2272 73.0612 84.6863 72.6722 85.0724C72.2833 85.4585 71.8219 85.7641 71.3147 85.9717C70.8074 86.1793 70.2642 86.2847 69.7161 86.282C69.165 86.2834 68.619 86.1757 68.1097 85.9651C67.6003 85.7545 67.1377 85.4452 66.7485 85.055C66.3592 84.6648 66.0511 84.2014 65.8417 83.6916C65.6323 83.1817 65.5259 82.6355 65.5286 82.0844V82.1252Z" fill="url(#paint2_linear_45_20)"/>
<path d="M153.496 92.4815C148.579 92.4815 143.864 94.4345 140.388 97.9109C136.912 101.387 134.959 106.102 134.959 111.019C134.959 115.935 136.912 120.65 140.388 124.126C143.864 127.603 148.579 129.556 153.496 129.556C158.412 129.556 163.127 127.603 166.604 124.126C170.08 120.65 172.033 115.935 172.033 111.019C172.033 106.102 170.08 101.387 166.604 97.9109C163.127 94.4345 158.412 92.4815 153.496 92.4815ZM153.496 123.458C151.039 123.44 148.643 122.695 146.61 121.317C144.576 119.94 142.996 117.99 142.069 115.716C141.141 113.441 140.908 110.943 141.398 108.536C141.889 106.129 143.081 103.921 144.824 102.19C146.567 100.46 148.784 99.2842 151.194 98.8116C153.605 98.339 156.101 98.5907 158.369 99.5348C160.637 100.479 162.574 102.073 163.937 104.117C165.3 106.161 166.027 108.562 166.028 111.019C166.014 114.33 164.686 117.5 162.337 119.832C159.987 122.165 156.807 123.469 153.496 123.458Z" fill="url(#paint3_linear_45_20)"/>
<path d="M191.857 112.898L191.949 105.667V103.624H191.888H191.939L189.998 101.673L187.373 100.846L185.106 100.152L183.809 99.7738L182.614 97.3226L186.209 93.0024L185.964 89.2745L185.688 89.152L182.144 85.6284L175.679 79.0306H172.911L170.47 80.297L168.356 81.4409L167.171 82.0844L164.577 81.1958L164.087 75.6398L161.248 73.1784L160.972 73.2907H155.916L150.34 73.2192L145.632 73.1273V73.1886V73.1375L143.66 75.0882L142.854 77.6824L142.169 79.9804L141.791 81.2673L139.32 82.4521L135.01 78.8876L131.241 79.1225L131.129 79.3983L127.574 82.9116L120.926 89.3256V92.073L122.192 94.4935L123.346 96.5975L124 97.772L123.101 100.346L117.514 100.856L115.063 103.685L115.175 103.961V108.935L115.084 116.166V118.209H115.155H115.063L117.004 120.16L119.628 120.987L121.937 121.661L123.234 122.039L124.429 124.49L120.834 128.769L121.079 132.507L121.355 132.62L124.899 136.143L131.364 142.741H134.131L136.511 141.516L138.625 140.361L139.81 139.718L142.404 140.607L142.945 146.112L145.785 148.583L146.061 148.471H151.075L156.652 148.532L161.36 148.634V148.563V148.614L163.331 146.694L164.158 144.089L164.843 141.802L165.221 140.515L167.692 139.32L172.002 142.894L175.771 142.649L175.883 142.374L179.407 138.901L186.056 132.487V129.77L184.789 127.35L183.635 125.256L182.982 124.081L183.88 121.508L189.467 120.987L191.949 118.178L191.837 117.892L191.857 112.898ZM180.622 115.084L178.008 115.421L177.497 116.993L175.454 123.213L174.617 125.746L178.968 130.22L179.101 130.363L179.162 130.291L174.3 135.449L169.97 132.548L167.927 130.955L166.446 131.701L162.688 133.58L160.553 134.601L158.071 135.898L157.959 142.026V142.179L149.901 142.414L148.879 137.308L148.542 134.714L146.959 134.203L140.688 132.16L138.135 131.333L133.621 135.643L133.478 135.776L133.549 135.837L128.34 131.047L131.261 126.757L132.865 124.715L132.119 123.244L130.22 119.516L129.147 117.402L127.942 115.022L121.671 114.889H121.477L121.273 107.74L126.379 106.719L128.994 106.382L129.515 104.819L131.558 98.5891L132.426 96.0664L128.075 91.5929L127.942 91.4602L132.773 86.3535L137.103 89.2541L139.146 90.8474L140.627 90.112L146.52 87.1604L148.92 85.9552L149.053 79.7251V79.5821L157.111 79.337L158.133 84.4436L158.47 87.0276L160.053 87.5383L166.334 89.5809L168.877 90.4082L173.391 86.088L173.534 85.9552L173.463 85.8939L178.661 90.7453L175.74 95.045L174.137 97.0877L174.882 98.5584L176.782 102.286L177.803 104.411L179.019 106.78L185.28 106.913H185.535V106.821L185.739 114.042L180.622 115.084Z" fill="url(#paint4_linear_45_20)"/>
<path d="M145.376 54.8046L141.291 49.8409C141.225 49.7587 141.143 49.6908 141.05 49.6413C140.956 49.5918 140.854 49.5619 140.749 49.5533C140.644 49.5447 140.538 49.5576 140.438 49.5913C140.338 49.6249 140.246 49.6786 140.167 49.749L136.889 52.619C136.743 52.7423 136.65 52.9171 136.629 53.1072C136.608 53.2973 136.661 53.4881 136.777 53.6403L141.26 59.7172C141.564 60.1342 141.834 60.5748 142.067 61.0347L145.315 67.3772C145.435 67.6041 145.636 67.7774 145.879 67.8626C146.121 67.9478 146.386 67.9386 146.622 67.8368L150.851 66.0086C150.949 65.9673 151.039 65.9057 151.112 65.8278C151.186 65.7499 151.242 65.6574 151.278 65.5564C151.313 65.4553 151.327 65.3479 151.319 65.2411C151.31 65.1342 151.28 65.0304 151.228 64.9362L147.817 58.4814C147.122 57.1811 146.305 55.9499 145.376 54.8046Z" fill="url(#paint5_linear_45_20)"/>
<path d="M130.608 184.034L87.7119 183.85L67.3874 183.625L67.2954 158.643H67.0605V155.988V155.334C67.0659 154.915 66.9881 154.498 66.8315 154.109C66.675 153.719 66.4428 153.365 66.1484 153.065C65.854 152.766 65.5032 152.528 65.1163 152.366C64.7294 152.203 64.3141 152.118 63.8944 152.117H60.9836L41.5783 151.412L39.9953 150.626C38.3254 149.515 36.906 148.068 35.8282 146.377C35.5773 145.939 35.447 145.442 35.4504 144.937V132.385C35.4504 131.823 35.4504 130.659 35.2972 129.321H35.4504L35.3789 126.104L35.4504 121.232C35.3378 120.321 34.9255 119.473 34.2784 118.823C33.6312 118.172 32.786 117.755 31.8757 117.637L24.7264 117.218L19.9057 117.668L21.2028 115.87L40.7715 91.5725L41.5171 90.6431L41.7724 86.7416L41.9971 83.361C42.0362 82.8491 42.1113 82.3406 42.2218 81.8393L43.8355 74.9146C43.8877 74.6662 43.8455 74.4071 43.7171 74.1881C43.5887 73.9691 43.3833 73.8057 43.141 73.7299L38.7084 72.443C38.6033 72.4038 38.491 72.3883 38.3792 72.3973C38.2674 72.4063 38.159 72.4398 38.0616 72.4953C37.9642 72.5508 37.8802 72.6271 37.8155 72.7186C37.7508 72.8102 37.7069 72.9148 37.6871 73.0252L36.1755 80.1745C35.8712 81.6125 35.7036 83.0762 35.675 84.5458V87.5076L16.2698 111.591L15.371 112.714L14.2169 115.206C13.7123 116.27 13.5285 117.457 13.6881 118.624C13.8478 119.79 14.3438 120.884 15.1157 121.773C15.3543 122.036 15.6139 122.278 15.8919 122.498L16.0042 122.59C16.7504 123.138 17.6429 123.451 18.5677 123.489L22.8676 123.724V123.816H29.1896V129.464H29.2611C29.1692 130.7 29.1385 131.793 29.1283 132.324L28.8525 144.038C28.8319 144.249 28.8319 144.461 28.8525 144.672C29.3695 147.283 30.4424 149.754 31.9985 151.914C33.5546 154.075 35.5574 155.875 37.8709 157.193C38.1686 157.361 38.4936 157.475 38.831 157.53L40.1178 157.755C40.3825 157.785 40.6498 157.785 40.9145 157.755L60.7794 158.531L60.953 183.523H60.9326V186.158V186.812C60.9271 187.232 61.0053 187.65 61.1625 188.04C61.3197 188.43 61.5528 188.785 61.8483 189.084C62.1438 189.383 62.4958 189.621 62.8839 189.783C63.2719 189.945 63.6883 190.029 64.1089 190.029H67.0197H87.3544L133.212 190.274H133.866C134.285 190.283 134.702 190.21 135.092 190.057C135.483 189.904 135.839 189.675 136.14 189.383C136.441 189.091 136.682 188.743 136.847 188.357C137.012 187.972 137.099 187.558 137.103 187.138V184.248L137.532 149.176H130.914L130.608 184.034Z" fill="url(#paint6_linear_45_20)"/>
</g>
<defs>
<linearGradient id="paint0_linear_45_20" x1="66.9533" y1="0" x2="66.9533" y2="66.9585" gradientUnits="userSpaceOnUse">
<stop stop-color="#FF000F"/>
<stop offset="1" stop-color="#FFB800"/>
</linearGradient>
<linearGradient id="paint1_linear_45_20" x1="162.82" y1="15.6723" x2="162.82" y2="73.7048" gradientUnits="userSpaceOnUse">
<stop stop-color="#FF000F"/>
<stop offset="1" stop-color="#FFB800"/>
</linearGradient>
<linearGradient id="paint2_linear_45_20" x1="83.6624" y1="74.0257" x2="83.6624" y2="119.874" gradientUnits="userSpaceOnUse">
<stop stop-color="#FF000F"/>
<stop offset="1" stop-color="#FFB800"/>
</linearGradient>
<linearGradient id="paint3_linear_45_20" x1="153.496" y1="92.4815" x2="153.496" y2="129.556" gradientUnits="userSpaceOnUse">
<stop stop-color="#FF000F"/>
<stop offset="1" stop-color="#FFB800"/>
</linearGradient>
<linearGradient id="paint4_linear_45_20" x1="153.506" y1="73.1273" x2="153.506" y2="148.634" gradientUnits="userSpaceOnUse">
<stop stop-color="#FF000F"/>
<stop offset="1" stop-color="#FFB800"/>
</linearGradient>
<linearGradient id="paint5_linear_45_20" x1="143.973" y1="49.5507" x2="143.973" y2="67.9204" gradientUnits="userSpaceOnUse">
<stop stop-color="#FF000F"/>
<stop offset="1" stop-color="#FFB800"/>
</linearGradient>
<linearGradient id="paint6_linear_45_20" x1="75.5823" y1="72.3948" x2="75.5823" y2="190.275" gradientUnits="userSpaceOnUse">
<stop stop-color="#FF000F"/>
<stop offset="1" stop-color="#FFB800"/>
</linearGradient>
<clipPath id="clip0_45_20">
<rect width="192" height="190.335" fill="white"/>
</clipPath>
</defs>
</svg>
