<svg width="512" height="508" viewBox="0 0 512 508" fill="none" xmlns="http://www.w3.org/2000/svg">
<g clip-path="url(#clip0_42_25)">
<path d="M324.647 178.556H329.577L338.755 166.79L356.158 144.511L357.248 143.095V96.7949L348.887 85.9007L334.533 67.2716L328.351 59.101H305.555L295.941 44.9113L284.066 27.181H211.293L204.974 17.7303L193.1 0H97.7754L90.6941 17.7303L84.9202 32.1651L80.4808 43.3044H45.5377L23.7493 61.0075L17.703 65.9644L7.7076 74.135L-0.163452 80.5626V140.154L7.7076 150.367L17.703 163.358L23.1501 170.385L29.4688 178.556H324.647ZM73.6175 127.081H55.0429L45.3198 139.527L33.5813 154.561L17.8664 134.162V111.039H46.6816L57.8482 101.915L50.8214 93.3088L46.5999 88.2157L40.3902 93.3088H17.9754V88.9239L52.1287 61.0075H85.5194L103.44 74.8159V77.7573C97.5632 79.2166 92.3401 82.593 88.5964 87.3527C84.8527 92.1124 82.8021 97.9841 82.7686 104.04C82.8118 111.235 85.7003 118.12 90.8033 123.192C95.9062 128.265 102.809 131.112 110.004 131.112C117.199 131.112 124.102 128.265 129.205 123.192C134.308 118.12 137.196 111.235 137.24 104.04C137.215 98.8174 135.69 93.7124 132.846 89.3327C130.002 84.9529 125.959 81.4833 121.198 79.337L120.408 79.0101V66.4274H119.7L120.408 65.5286L118.856 64.3302L97.8299 48.1796L110.004 17.7303H119.237L119.7 26.9904L120.435 42.3239L138.765 51.121L140.944 52.1832L148.76 36.2232L137.866 30.9395L137.212 17.7303H183.513L189.831 27.181L194.271 33.7993L188.824 39.2463L183.104 44.9386L179.346 48.6426V54.0897V74.5708L182.233 76.2321L195.142 83.6129C195.102 84.375 195.102 85.1387 195.142 85.9007C195.142 89.4773 195.847 93.0189 197.215 96.3233C198.584 99.6277 200.59 102.63 203.119 105.159C205.648 107.688 208.651 109.694 211.955 111.063C215.26 112.432 218.801 113.136 222.378 113.136C229.601 113.136 236.528 110.267 241.636 105.159C246.744 100.051 249.613 93.124 249.613 85.9007C249.577 78.701 246.692 71.8085 241.588 66.7303C236.484 61.6521 229.578 58.8013 222.378 58.8014C218.659 58.8018 214.979 59.5576 211.562 61.0229C208.144 62.4883 205.06 64.6328 202.496 67.3261L197.267 64.3302L194.543 62.7505V58.8831L197.267 56.1596L208.569 44.9658H274.724L284.584 59.673L288.887 66.0733L284.584 70.3493L269.223 85.5739L264.457 90.3129V103.386C258.865 105.055 253.958 108.475 250.457 113.143C246.956 117.811 245.047 123.479 245.01 129.314C245.01 136.537 247.88 143.465 252.988 148.572C258.095 153.68 265.023 156.55 272.246 156.55C279.469 156.55 286.397 153.68 291.504 148.572C296.612 143.465 299.481 136.537 299.481 129.314C299.469 123.859 297.808 118.534 294.717 114.038C291.626 109.543 287.249 106.086 282.16 104.121V97.6665L302.995 76.9947H319.554L339.436 102.814V137.103L320.807 160.853H222.16V141.379L216.958 136.15L208.27 127.544L199.854 119.183H165.21L158.974 113L152.737 119.183L146.363 125.447L157.83 136.831H192.446L204.321 148.624V160.853H51.3116L63.8127 144.838H78.9829V127.081H73.6175ZM109.977 89.8226C111.856 89.8083 113.719 90.165 115.459 90.8724C117.2 91.5798 118.783 92.6239 120.12 93.9447C121.456 95.2656 122.518 96.8373 123.245 98.5696C123.972 100.302 124.35 102.161 124.357 104.04C124.35 105.91 123.975 107.761 123.252 109.486C122.53 111.212 121.474 112.778 120.147 114.096C118.819 115.413 117.245 116.457 115.514 117.166C113.783 117.875 111.929 118.236 110.059 118.229C108.186 118.24 106.329 117.881 104.595 117.174C102.861 116.466 101.283 115.423 99.9528 114.105C98.6222 112.787 97.5645 111.22 96.8404 109.493C96.1163 107.766 95.7398 105.912 95.7327 104.04C95.7471 100.269 97.2533 96.6568 99.9223 93.9929C102.591 91.3291 106.206 89.8298 109.977 89.8226ZM207.861 85.9007C207.868 84.0301 208.244 82.1793 208.966 80.4539C209.689 78.7284 210.744 77.1621 212.072 75.8445C213.399 74.5269 214.974 73.4837 216.705 72.7744C218.436 72.0652 220.289 71.7039 222.16 71.711C224.033 71.7003 225.889 72.059 227.623 72.7666C229.357 73.4742 230.935 74.5169 232.266 75.8349C233.596 77.1528 234.654 78.7203 235.378 80.4475C236.102 82.1748 236.479 84.0278 236.486 85.9007C236.479 87.7736 236.102 89.6267 235.378 91.3539C234.654 93.0812 233.596 94.6486 232.266 95.9666C230.935 97.2846 229.357 98.3272 227.623 99.0348C225.889 99.7425 224.033 100.101 222.16 100.09C220.289 100.098 218.436 99.7363 216.705 99.027C214.974 98.3178 213.399 97.2746 212.072 95.9569C210.744 94.6393 209.689 93.0731 208.966 91.3476C208.244 89.6222 207.868 87.7713 207.861 85.9007ZM272.11 115.07C275.89 115.055 279.522 116.541 282.208 119.202C284.893 121.862 286.414 125.479 286.436 129.26C286.414 133.042 284.894 136.662 282.209 139.327C279.524 141.992 275.893 143.484 272.11 143.477C268.332 143.477 264.707 141.981 262.028 139.317C259.349 136.654 257.833 133.038 257.811 129.26C257.833 125.484 259.35 121.871 262.03 119.211C264.71 116.552 268.334 115.063 272.11 115.07Z" fill="url(#paint0_linear_42_25)"/>
<path d="M388.215 96.1958C393.901 96.224 399.454 94.4717 404.094 91.1845C408.734 87.8973 412.229 83.2402 414.088 77.8663H415.532H448.214C455.327 77.9382 462.121 80.8291 467.105 85.9046C472.088 90.9801 474.854 97.8255 474.796 104.938V143.068C468.539 144.806 463.108 148.722 459.484 154.111C455.86 159.499 454.28 166.006 455.03 172.457C455.78 178.907 458.811 184.878 463.575 189.291C468.339 193.704 474.524 196.27 481.013 196.525C487.502 196.78 493.869 194.708 498.965 190.683C504.061 186.658 507.551 180.944 508.806 174.572C510.061 168.2 508.997 161.59 505.807 155.933C502.618 150.276 497.511 145.946 491.41 143.722V98.8649C491.457 93.7502 490.495 88.6765 488.581 83.9334C486.667 79.1903 483.837 74.8706 480.254 71.2212C476.67 67.5717 472.402 64.6639 467.695 62.6638C462.987 60.6636 457.932 59.6103 452.817 59.564H413.898C411.919 54.3556 408.402 49.8726 403.815 46.7105C399.227 43.5484 393.786 41.857 388.215 41.861C384.485 41.5968 380.741 42.1033 377.216 43.3489C373.691 44.5945 370.46 46.5525 367.725 49.1011C364.989 51.6497 362.808 54.7342 361.316 58.1626C359.824 61.5909 359.055 65.2896 359.055 69.0284C359.055 72.7671 359.824 76.4659 361.316 79.8942C362.808 83.3225 364.989 86.4071 367.725 88.9556C370.46 91.5042 373.691 93.4623 377.216 94.7079C380.741 95.9535 384.485 96.46 388.215 96.1958ZM482.15 155.188C484.914 155.209 487.61 156.049 489.897 157.6C492.185 159.151 493.963 161.345 495.005 163.905C496.048 166.465 496.31 169.276 495.758 171.984C495.205 174.692 493.863 177.177 491.901 179.124C489.939 181.07 487.445 182.393 484.732 182.924C482.02 183.456 479.211 183.172 476.659 182.11C474.107 181.047 471.927 179.253 470.394 176.953C468.86 174.653 468.042 171.951 468.042 169.187C468.049 167.341 468.42 165.515 469.132 163.813C469.845 162.111 470.887 160.565 472.197 159.265C473.507 157.966 475.06 156.936 476.768 156.237C478.475 155.537 480.304 155.181 482.15 155.188ZM388.215 55.0157C390.979 55.0372 393.674 55.8765 395.962 57.4277C398.25 58.979 400.027 61.1728 401.07 63.7326C402.113 66.2924 402.375 69.1037 401.822 71.812C401.27 74.5203 399.928 77.0045 397.966 78.9515C396.004 80.8984 393.51 82.2208 390.797 82.7522C388.084 83.2836 385.275 83.0001 382.724 81.9374C380.172 80.8748 377.992 79.0805 376.459 76.7807C374.925 74.481 374.107 71.7788 374.107 69.0148C374.128 65.2898 375.625 61.7251 378.269 59.1013C380.913 56.4775 384.49 55.0084 388.215 55.0157Z" fill="url(#paint1_linear_42_25)"/>
<path d="M209.06 305.637H239.945C241.515 309.755 244.298 313.301 247.925 315.805C251.553 318.31 255.854 319.655 260.262 319.663C263.105 319.688 265.926 319.152 268.561 318.084C271.196 317.017 273.595 315.44 275.619 313.443C277.643 311.447 279.254 309.07 280.357 306.45C281.461 303.83 282.037 301.017 282.051 298.174C282.04 295.329 281.467 292.513 280.365 289.89C279.263 287.266 277.653 284.887 275.629 282.887C273.604 280.888 271.204 279.308 268.567 278.239C265.93 277.17 263.108 276.633 260.262 276.658C255.763 276.646 251.371 278.038 247.7 280.64C244.028 283.242 241.26 286.925 239.781 291.175H212.709C207.089 291.117 201.721 288.835 197.78 284.828C193.839 280.82 191.647 275.415 191.683 269.795V239.618C196.239 238.383 200.263 235.685 203.136 231.941C206.01 228.196 207.574 223.612 207.589 218.892C207.578 216.047 207.005 213.233 205.903 210.611C204.8 207.99 203.19 205.612 201.165 203.614C199.14 201.617 196.74 200.04 194.103 198.974C191.466 197.908 188.645 197.374 185.801 197.403C182.968 197.392 180.161 197.939 177.54 199.013C174.918 200.088 172.535 201.667 170.524 203.663C168.513 205.658 166.915 208.03 165.822 210.643C164.728 213.256 164.159 216.059 164.148 218.892C164.157 223.316 165.529 227.63 168.078 231.246C170.627 234.863 174.229 237.605 178.392 239.1V274.507C178.353 278.567 179.116 282.595 180.637 286.359C182.159 290.124 184.409 293.551 187.258 296.443C190.108 299.336 193.501 301.637 197.242 303.215C200.983 304.792 204.999 305.615 209.06 305.637ZM260.262 287.089C263.212 287.082 266.044 288.245 268.137 290.323C270.231 292.401 271.414 295.225 271.429 298.174C271.422 299.633 271.127 301.077 270.562 302.422C269.997 303.768 269.173 304.989 268.136 306.016C267.099 307.042 265.87 307.855 264.519 308.407C263.168 308.959 261.722 309.239 260.262 309.232C258.803 309.239 257.357 308.959 256.006 308.407C254.655 307.855 253.426 307.042 252.389 306.016C251.352 304.989 250.528 303.768 249.962 302.422C249.397 301.077 249.103 299.633 249.096 298.174C249.099 296.713 249.391 295.266 249.955 293.917C250.518 292.569 251.342 291.345 252.379 290.315C253.417 289.285 254.647 288.47 256 287.917C257.352 287.363 258.801 287.082 260.262 287.089ZM174.743 219.001C174.75 217.541 175.045 216.098 175.61 214.752C176.175 213.407 176.999 212.186 178.036 211.159C179.073 210.132 180.302 209.32 181.653 208.768C183.004 208.216 184.45 207.936 185.909 207.943C187.369 207.936 188.815 208.216 190.166 208.768C191.517 209.32 192.746 210.132 193.783 211.159C194.82 212.186 195.644 213.407 196.209 214.752C196.774 216.098 197.069 217.541 197.076 219.001C197.072 220.462 196.781 221.909 196.217 223.257C195.654 224.606 194.83 225.83 193.792 226.86C192.755 227.889 191.525 228.704 190.172 229.258C188.82 229.811 187.371 230.093 185.909 230.085C184.44 230.089 182.984 229.802 181.626 229.24C180.267 228.679 179.034 227.854 177.996 226.813C176.958 225.773 176.136 224.537 175.578 223.178C175.019 221.818 174.736 220.361 174.743 218.892V219.001Z" fill="url(#paint2_linear_42_25)"/>
<path d="M409.322 246.617C396.212 246.617 383.639 251.825 374.368 261.096C365.098 270.366 359.89 282.94 359.89 296.05C359.89 309.16 365.098 321.733 374.368 331.004C383.639 340.274 396.212 345.482 409.322 345.482C422.432 345.482 435.006 340.274 444.276 331.004C453.547 321.733 458.755 309.16 458.755 296.05C458.755 282.94 453.547 270.366 444.276 261.096C435.006 251.825 422.432 246.617 409.322 246.617ZM409.322 329.223C402.772 329.174 396.383 327.188 390.96 323.513C385.537 319.839 381.323 314.641 378.85 308.576C376.377 302.51 375.755 295.848 377.062 289.429C378.37 283.01 381.548 277.123 386.197 272.508C390.846 267.893 396.757 264.758 403.185 263.498C409.613 262.237 416.271 262.908 422.318 265.426C428.365 267.944 433.532 272.196 437.166 277.646C440.8 283.095 442.74 289.499 442.74 296.05C442.704 304.879 439.164 313.333 432.898 319.553C426.631 325.774 418.152 329.252 409.322 329.223Z" fill="url(#paint3_linear_42_25)"/>
<path d="M511.619 301.061L511.864 281.778V276.331H511.7H511.837L506.662 271.129L499.662 268.923L493.616 267.071L490.157 266.063L486.971 259.527L496.558 248.006L495.904 238.065L495.168 237.739L485.718 228.342L468.478 210.748H461.097L454.588 214.125L448.95 217.176L445.791 218.892L438.873 216.522L437.565 201.706L429.994 195.142L429.259 195.442H415.777L400.906 195.251L388.351 195.006V195.17V195.033L383.094 200.235L380.943 207.153L379.118 213.281L378.11 216.713L371.519 219.872L360.026 210.367L349.976 210.993L349.677 211.729L340.199 221.098L322.468 238.202V245.528L325.845 251.983L328.923 257.593L330.666 260.725L328.269 267.589L313.372 268.95L306.835 276.495L307.135 277.23V290.494L306.89 309.776V315.224H307.08H306.835L312.01 320.426L319.009 322.632L325.165 324.429L328.623 325.437L331.81 331.973L322.223 343.385L322.877 353.353L323.612 353.653L333.063 363.049L350.303 380.643H357.684L364.03 377.375L369.667 374.297L372.827 372.581L379.744 374.951L381.188 389.631L388.759 396.222L389.495 395.922H402.867L417.738 396.086L430.294 396.358V396.167V396.304L435.55 391.183L437.756 384.238L439.581 378.138L440.589 374.706L447.18 371.519L458.673 381.052L468.723 380.398L469.022 379.663L478.419 370.403L496.149 353.299V346.054L492.772 339.599L489.694 334.016L487.951 330.884L490.348 324.021L505.246 322.632L511.864 315.142L511.564 314.379L511.619 301.061ZM481.66 306.889L474.687 307.788L473.326 311.982L467.879 328.569L465.645 335.323L477.248 347.252L477.602 347.634L477.765 347.443L464.801 361.197L453.253 353.462L447.806 349.213L443.857 351.202L433.834 356.213L428.142 358.937L421.524 362.395L421.224 378.737V379.145L399.735 379.772L397.012 366.154L396.113 359.236L391.892 357.874L375.169 352.427L368.36 350.221L356.322 361.715L355.941 362.069L356.131 362.232L342.241 349.459L350.031 338.02L354.307 332.573L352.318 328.651L347.253 318.71L344.393 313.072L341.179 306.726L324.456 306.372H323.939L323.394 287.307L337.012 284.584L343.984 283.685L345.373 279.518L350.82 262.904L353.135 256.177L341.533 244.248L341.179 243.894L354.061 230.276L365.609 238.011L371.056 242.26L375.006 240.299L390.72 232.428L397.121 229.214L397.475 212.6V212.219L418.964 211.565L421.687 225.183L422.586 232.074L426.807 233.435L443.557 238.882L450.339 241.089L462.377 229.568L462.758 229.214L462.568 229.05L476.43 241.987L468.641 253.453L464.365 258.901L466.353 262.822L471.419 272.763L474.143 278.428L477.384 284.747L494.079 285.101H494.76V284.856L495.305 304.111L481.66 306.889Z" fill="url(#paint4_linear_42_25)"/>
<path d="M387.67 146.146L376.776 132.909C376.6 132.69 376.381 132.509 376.132 132.377C375.884 132.245 375.611 132.165 375.331 132.142C375.05 132.119 374.768 132.154 374.502 132.243C374.235 132.333 373.989 132.476 373.78 132.664L365.037 140.317C364.648 140.646 364.399 141.112 364.343 141.619C364.288 142.126 364.429 142.635 364.738 143.041L376.694 159.246C377.504 160.358 378.223 161.533 378.846 162.759L387.507 179.673C387.827 180.278 388.364 180.74 389.01 180.967C389.656 181.194 390.364 181.169 390.993 180.898L402.268 176.023C402.532 175.913 402.77 175.749 402.966 175.541C403.162 175.333 403.313 175.086 403.407 174.817C403.502 174.547 403.54 174.261 403.517 173.976C403.495 173.691 403.412 173.414 403.276 173.163L394.179 155.95C392.326 152.483 390.146 149.2 387.67 146.146Z" fill="url(#paint5_linear_42_25)"/>
<path d="M348.287 490.756L233.898 490.266L179.7 489.667L179.455 423.049H178.828V415.968V414.225C178.843 413.105 178.635 411.995 178.218 410.956C177.8 409.918 177.181 408.972 176.396 408.174C175.611 407.377 174.675 406.742 173.644 406.308C172.612 405.874 171.504 405.649 170.385 405.645H162.623L110.876 403.766L106.654 401.669C102.201 398.708 98.4162 394.849 95.5421 390.339C94.873 389.17 94.5254 387.845 94.5344 386.499V353.026C94.5344 351.528 94.5344 348.424 94.1259 344.856H94.5344L94.3438 336.277L94.5344 323.285C94.2343 320.856 93.1348 318.596 91.4091 316.86C89.6833 315.125 87.4293 314.012 85.002 313.698L65.9371 312.582L53.082 313.78L56.5409 308.987L108.724 244.193L110.712 241.715L111.393 231.311L111.992 222.296C112.097 220.931 112.297 219.575 112.592 218.238L116.895 199.772C117.034 199.11 116.921 198.419 116.579 197.835C116.237 197.251 115.689 196.815 115.043 196.613L103.223 193.181C102.942 193.077 102.643 193.035 102.345 193.059C102.047 193.084 101.758 193.173 101.498 193.321C101.238 193.469 101.014 193.672 100.841 193.916C100.669 194.16 100.552 194.439 100.499 194.734L96.4681 213.799C95.6567 217.633 95.2098 221.536 95.1336 225.455V233.354L43.3861 297.575L40.9894 300.571L37.9118 307.216C36.5661 310.052 36.0762 313.219 36.5018 316.329C36.9275 319.44 38.2503 322.358 40.3085 324.729C40.9448 325.429 41.6371 326.075 42.3784 326.662L42.678 326.908C44.6679 328.368 47.0479 329.203 49.5141 329.304L60.9803 329.931V330.176H77.839V345.237H78.0297C77.7846 348.533 77.7029 351.447 77.6756 352.863L76.9403 384.102C76.8853 384.664 76.8853 385.229 76.9403 385.791C78.3188 392.756 81.18 399.343 85.3295 405.104C89.4791 410.866 94.8199 415.667 100.989 419.181C101.783 419.629 102.65 419.933 103.549 420.08L106.981 420.679C107.687 420.76 108.4 420.76 109.105 420.679L162.078 422.749L162.541 489.395H162.487V496.421V498.164C162.473 499.286 162.681 500.399 163.1 501.439C163.519 502.479 164.141 503.426 164.929 504.224C165.717 505.022 166.656 505.656 167.69 506.088C168.725 506.521 169.836 506.744 170.957 506.744H178.719H232.945L355.232 507.397H356.976C358.093 507.422 359.205 507.226 360.246 506.818C361.287 506.41 362.237 505.799 363.04 505.021C363.843 504.243 364.484 503.314 364.925 502.286C365.366 501.259 365.599 500.154 365.609 499.036V491.328L366.753 397.802H349.104L348.287 490.756Z" fill="url(#paint6_linear_42_25)"/>
</g>
<defs>
<linearGradient id="paint0_linear_42_25" x1="178.542" y1="0" x2="178.542" y2="178.556" gradientUnits="userSpaceOnUse">
<stop stop-color="#FF000F"/>
<stop offset="1" stop-color="#FFB800"/>
</linearGradient>
<linearGradient id="paint1_linear_42_25" x1="434.187" y1="41.7929" x2="434.187" y2="196.546" gradientUnits="userSpaceOnUse">
<stop stop-color="#FF000F"/>
<stop offset="1" stop-color="#FFB800"/>
</linearGradient>
<linearGradient id="paint2_linear_42_25" x1="223.1" y1="197.402" x2="223.1" y2="319.664" gradientUnits="userSpaceOnUse">
<stop stop-color="#FF000F"/>
<stop offset="1" stop-color="#FFB800"/>
</linearGradient>
<linearGradient id="paint3_linear_42_25" x1="409.322" y1="246.617" x2="409.322" y2="345.482" gradientUnits="userSpaceOnUse">
<stop stop-color="#FF000F"/>
<stop offset="1" stop-color="#FFB800"/>
</linearGradient>
<linearGradient id="paint4_linear_42_25" x1="409.349" y1="195.006" x2="409.349" y2="396.358" gradientUnits="userSpaceOnUse">
<stop stop-color="#FF000F"/>
<stop offset="1" stop-color="#FFB800"/>
</linearGradient>
<linearGradient id="paint5_linear_42_25" x1="383.928" y1="132.135" x2="383.928" y2="181.121" gradientUnits="userSpaceOnUse">
<stop stop-color="#FF000F"/>
<stop offset="1" stop-color="#FFB800"/>
</linearGradient>
<linearGradient id="paint6_linear_42_25" x1="201.553" y1="193.053" x2="201.553" y2="507.399" gradientUnits="userSpaceOnUse">
<stop stop-color="#FF000F"/>
<stop offset="1" stop-color="#FFB800"/>
</linearGradient>
<clipPath id="clip0_42_25">
<rect width="512" height="507.561" fill="white"/>
</clipPath>
</defs>
</svg>
